<svg version="1.2" xmlns="http://www.w3.org/2000/svg" viewBox="0 0 1544 973" width="1544" height="973"><style>.a{fill:#00def8}.b{fill:#003841}</style><path class="a" d="m771.8 973c-426.8 0-771.7-217.3-771.7-486 0-268.8 344.9-486.1 771.7-486.1 426.7 0 771.6 217.3 771.6 486.1 0 268.7-344.9 486-771.6 486z"/><path fill-rule="evenodd" class="b" d="m1439.6 592.1h85.3c-0.6 1.2-0.6 2.5-1.3 3.7h-84v15.5h77.2c-1.8 5.5-4.9 12.3-8 17.9q-0.6 1.8-1.8 4.3c-2.5 5-5 9.9-8.1 15.5v-35.3h-3.7v41.5c0 0.6-0.6 0.6-0.6 1.2-0.6 1.9-0.6 2.5-1.2 3.1h-53.8v52.6h16.7c0 0.6-0.7 0.6-0.7 1.2-1.8 1.2-3.7 3.7-5.5 5.6h-526.8v19.1h-302.4v-19.1h-527.4c-1.9-1.9-4.4-5-6.2-6.8h16.7v-52.6h-54.4c-1.3-1.2-1.9-1.9-2.5-3.7v-41.4h-3.7v34.6c-1.9-4.3-3.7-8.1-5.6-11.8-4.3-8.6-8.6-17.9-12.4-27.2h78.6v-14.8h-84.7c-0.7-1.9-0.7-2.5-1.3-3.7h86v-104.5h-103.9c0-1.9 0-5 0-7.4h103.9v-14.9h-103.3c0-1.8 0-2.5 0-3.1 0-0.6 0-0.6 0-1.2h103.3v-120h-68.7q1.3-1.8 2.5-4.3c0.6-0.6 0.6-1.9 1.2-3.1h87.2v-14.8h-79.1q3.1-5.6 6.8-11.2h71.7v-12.3l-55-11.8c1.2-1.8 3.7-4.3 4.9-6.2l32.8 7.5 8.7-10.6c4.9-6.1 16-2.4 16 6.2v13.6h497.8v-64.3c0-9.3 9.9-12.3 16.1-6.2l16 19.2 86.6-18.5 5-13.6c1.8-7.5 8.6-12.4 16.6-12.4 7.5 0 14.3 4.9 16.7 12.4l4.4 13.6 86.5 18.5 16.1-19.2c5-6.1 16.1-3.1 16.1 6.2v64.3h497.7v-13.6c0-8.6 10.6-12.3 16.1-6.2l8.7 10.6 32.7-7.5c2.5 1.9 3.8 4.4 5 6.2l-55 11.8v12.3h71.7c1.2 1.9 1.8 2.5 2.5 3.7 1.2 2.5 3.1 3.8 3.7 5.6 0.6 1.2 0.6 1.9 1.2 2.5h-78.5v15.4h87.2c1.8 1.9 2.4 4.4 3.7 6.2v0.6h-68v120h102.6c0 1.2 0 1.9 0 3.7h-102.6v14.9h103.8c0 2.4 0 5.5 0 7.4h-103.8zm-22.9-312.3v6.8l9.9-1.8-6.2-6.9c-0.6-1.2-3.7 0-3.7 1.9zm-1350.4 356.8v18.5h37.7v-18.5zm0-22.3v18.6h37.7v-18.6zm44.5-272.7v369.8h15.5v-369.8zm15.4-60.6c0-2.4-1.8-3.1-3.7-1.2l-5.6 6.2 9.3 2.5zm778.5 19.1v7.5h505.2v-7.5zm0 314.2v19.1h29.7v-19.1zm0.6 22.2v19.2h29.6v-19.2zm-0.6-317.2v14.2h505.2v-14.2zm-16.1-76.1l16.7 3.1v-17.3c0-1.8-2.5-2.5-3.7-1.2zm-128.6-24.8l1.2 1.3 11.8-1.9 11.7 1.9 1.3-1.3c0.6-1.2 0.6-3.7-0.6-4.9l-1.9-1.2v-3.1c0-1.3-1.9-2.5-2.5-2.5h-3.7l-3.7-2.5c-0.6-1.2-1.9-1.2-2.5 0l-3.7 2.5h-3.7c-1.2 0-2.5 1.9-2.5 2.5v3.1l-1.8 1.2c-1.3 1.2-1.3 3.7 0.6 4.9zm-121.2 48.9h265.9v-13l-133-28.4-132.9 28.4zm0-21l16.7-3.7-13-15.5c-1.2-1.2-3.7-0.6-3.7 1.3zm228.8 401.9v22.9h29.7v-22.9zm0 27.2v37.7h29.6v-37.7zm0-53.2v22.3h29.7v-22.3zm0-26v22.3h29.7v-22.3zm0-108.2v104.5h29.7v-104.5zm-0.6-22.2v14.8h30.3v-14.8zm0.6-157.1v153.4h29.7v-153.4zm-220.8-30.3v22.3h250.4v-22.3zm183.1 369.8v22.9h29.6v-22.9zm0 27.2v37.7h29.7v-37.7zm0-53.2v22.3h29.7v-22.3zm0-26v22.3h29.7v-22.3zm0-108.2v104.5h29.7v-104.5zm-146-22.2v14.8h175.6v-14.8zm142.9 89.6v-55.6h-108.2v55.6h7.4q0-1.2 0-1.8c0-26 21-47 46.4-47 25.3 0 46.3 20.4 46.3 47q0 0.6 0 1.8zm-8 7.5v149h7.4v-149zm-85.9 48.2v33.4h11.1v-33.4zm-0.6-26v22.3h10.5v-22.3zm0 90.3v6.8h11.1v-6.8zm-0.6 22.3v11.1h77.9v-11.1zm23.5-86.6v33.4h11.1v-33.4zm-1.2-26v22.3h11.1v-22.3zm1.3 90.3v6.8h11.1v-6.8zm22.3-64.3v33.4h11.1v-33.4zm-1.2-26v22.3h11.1v-22.3zm1.2 90.3v6.8h11.2v-6.8zm32.1 6.8v-6.8h-10.5v6.8zm-11.1-71.1v33.4h11.1v-33.4zm0.6-26v22.3h10.5v-22.3zm-68-22.2v6.8h78.5v-6.8zm-14.2 0v149h6.8v-149zm0-74.9v7.5h108.2v-7.5zm-34 160.2v22.9h29.7v-22.9zm0 27.2v37.7h29.7v-37.7zm0-53.2v22.3h29.7v-22.3zm0-26v22.3h29.6v-22.3zm0-108.2v104.5h29.7v-104.5zm160.2-157.6v100.7h15.4v-123h-175.6v123h15.5v-100.7h18.5v100.7h26v-51.9h26.6v51.9h3.1v-51.9h26.6v51.9h25.9v-100.7zm-29 108.8v22.9h17.9v-22.9zm-26.6 0v22.9h18.6v-22.9zm-26 0v22.9h19.2v-22.9zm-26.6 0v22.9h19.1v-22.9zm-25.9 0v22.9h18.5v-22.9zm-25.9 0v22.9h19.1v-22.9zm157.1 0v22.9h19.1v-22.9zm-194.1 209v22.9h29.7v-22.9zm0 27.2v37.7h29.6v-37.7zm0-53.2v22.3h29.7v-22.3zm0-26v22.3h29.7v-22.3zm0-108.2v104.5h29.7v-104.5zm0-22.2v14.8h29.7v-14.8zm0-157.1v153.4h29.6v-153.4zm-512.5-8v7.4h505.1v-7.4zm0 19.1v15.5h505.2v-15.5zm0 22.9v119.4h505.2v-119.4zm0 123.1v15.4h505.1v-15.4zm0 22.9v104.5h505.2v-104.5zm0 108.2v14.8h505.2v-14.8zm474.9 18.5v18.6h29.6v-18.6zm-0.6 22.3v18.5h30.3v-18.5zm-82.2-22.3v18.6h48.8v-18.6zm0 22.3v18.5h48.9v-18.5zm-82.9-22.3v18.6h48.9v-18.6zm0 22.3v18.5h48.8v-18.5zm-82.2-22.3v18.6h48.8v-18.6zm0.7 22.3v18.5h48.2v-18.5zm-81.6-22.3v18.6h48.2v-18.6zm-0.6 22.3v18.5h48.8v-18.5zm-82.8-22.3v18.6h48.8v-18.6zm0 22.3v18.5h48.9v-18.5zm-63.1-22.3v18.6h29.7v-18.6zm0 21.7v19.1h29.7v-19.1zm0 52.5h505.1v-29.7h-505.1zm0 11.8v11.1h505.1v-11.1zm493.4 19.2v10.5h288.2v-10.5zm276.4-18.6v10.5h505.2v-10.5zm0-41.4v30.3h505.1v-30.3zm64.3-22.9v19.2h48.3v-19.2zm0-22.3v18.6h48.8v-18.6zm82.2 22.3v19.2h48.9v-19.2zm0-22.3v18.6h48.8v-18.6zm82.9 22.3v19.2h48.8v-19.2zm0-22.3v18.6h48.3v-18.6zm81.6 22.3v19.2h48.2v-19.2zm0-22.3v18.6h48.9v-18.6zm83.4 22.3v19.2h48.3v-19.2zm0-22.3v18.6h48.8v-18.6zm82.3 22.3v19.2h29.6v-19.2zm0-22.9v19.2h29.7v-19.2zm29.7-19.2h-505.2v15.5h505.2zm-505.2-108.2v104.5h505.2v-104.5zm0-22.3v14.9h505.2v-14.9zm0.6-123v119.9h505.8v-119.9zm511.3 0v369.8h15.5v-369.8zm22.9 272.7v19.1h37.7v-19.1zm0 22.9v19.1h37.7v-19.1z"/><path class="b" d="m118.8 299.6l-51.9-10.5c-0.6 1.2-1.9 1.9-2.5 3.7-0.6 1.2-1.2 1.9-1.9 3.7l20.4 4.3h35.9z"/><path class="b" d="m669.1 255.1h54.4l48.3-10.5 48.2 10.5h53.8l-102-21z"/><path class="b" d="m1461.2 299.6l20.4-4.3c-0.6-1.3-1.9-1.9-2.5-3.1-0.6-1.9-1.2-2.5-1.8-3.7l-52.6 10.5h36.5z"/><path class="b" d="m208.5 367.6v3.1h-56.3v-3.1z"/><path class="b" d="m197.3 378.1v19.2h-33.4v-19.2z"/><path class="b" d="m179.4 400.4v48.9h-15.5v-48.9z"/><path class="b" d="m198 400.4v48.9h-14.9v-48.9z"/><path class="b" d="m291.3 367.6v3.1h-56.2v-3.1z"/><path class="b" d="m279.6 378.1v19.2h-33.4v-19.2z"/><path class="b" d="m261 400.4v48.9h-14.8v-48.9z"/><path class="b" d="m280.2 400.4v48.9h-15.5v-48.9z"/><path class="b" d="m372.9 367.6v3.1h-55.6v-3.1z"/><path class="b" d="m362.4 378.1v19.2h-33.4v-19.2z"/><path class="b" d="m343.9 400.4v48.9h-14.9v-48.9z"/><path class="b" d="m362.4 400.4v48.9h-15.4v-48.9z"/><path class="b" d="m455.8 367.6v3.1h-55.7v-3.1z"/><path class="b" d="m444.1 378.1v19.2h-33.4v-19.2z"/><path class="b" d="m426.1 400.4v48.9h-15.4v-48.9z"/><path class="b" d="m444.7 400.4v48.9h-14.9v-48.9z"/><path class="b" d="m538 367.6v3.1h-56.2v-3.1z"/><path class="b" d="m526.3 378.1v19.2h-33.4v-19.2z"/><path class="b" d="m508.4 400.4v48.9h-15.5v-48.9z"/><path class="b" d="m526.9 400.4v48.9h-15.5v-48.9z"/><path class="b" d="m619.7 367.6v3.1h-55.7v-3.1z"/><path class="b" d="m609.1 378.1v19.2h-33.3v-19.2z"/><path class="b" d="m590.6 400.4v48.9h-14.8v-48.9z"/><path class="b" d="m609.8 400.4v48.9h-15.5v-48.9z"/><path class="b" d="m810.7 344.8v3.7h-78.5v-3.7z"/><path class="b" d="m800.2 356.5v18.6h-56.3v-18.6z"/><path class="b" d="m852.1 318.8c0-4.3-3.7-7.4-8-7.4h-17.9c-4.4 0-8.1 3.7-8.1 7.4 0 3.7 3.7 7.4 8.1 7.4 1.8 0 3.7-1.9 3.7-3.7h10.5c0 1.8 1.9 3.7 3.7 3.7 4.3 0 8-3.1 8-7.4z"/><path class="b" d="m717.4 311.4h-18.6c-4.3 0-8 3.7-8 7.4 0 3.7 3.7 7.4 8 7.4 2.5 0 3.7-1.9 3.7-3.7h11.1c0 1.8 1.3 3.7 3.8 3.7 4.3 0 8-3.7 8-7.4 0-3.7-3.7-7.4-8-7.4z"/><path class="b" d="m78 363.9h-52.6c-0.6 1.3-0.6 1.9-1.2 3.7h54.4v-3.7z"/><path class="b" d="m66.9 374.4v19.2h-41.5v-19.2z"/><path class="b" d="m44 397.3v40.8h-18.6v-40.8z"/><path class="b" d="m66.9 397.3v40.8h-19.2v-40.8z"/><path class="b" d="m78.6 498.1v3.7h-64.3v-3.7z"/><path class="b" d="m66.9 509.2v19.2h-41.5v-19.2z"/><path class="b" d="m44 532.1v40.2h-18.6v-40.2z"/><path class="b" d="m66.9 532.1v41.4h-19.2v-41.4z"/><path class="b" d="m1465.5 367.6h53.8c-0.6-1.8-0.6-2.4-1.2-3.7h-52.6z"/><path class="b" d="m1518.7 374.4v19.2h-41.4v-19.2z"/><path class="b" d="m1518.7 397.3v40.8h-19.2v-40.8z"/><path class="b" d="m1495.8 397.3v40.8h-18.5v-40.8z"/><path class="b" d="m1529.2 498.1v3.7h-63.7v-3.7z"/><path class="b" d="m1518.7 509.2v19.2h-41.4v-19.2z"/><path class="b" d="m1518.7 532.1v40.2h-19.2v-40.2z"/><path class="b" d="m1495.8 532.1v41.4h-18.5v-41.4z"/><path class="b" d="m208.5 498.1v3.7h-56.3v-3.7z"/><path class="b" d="m197.3 509.2v19.2h-33.4v-19.2z"/><path class="b" d="m179.4 532.1v48.2h-15.5v-48.2z"/><path class="b" d="m198 532.1v48.2h-14.9v-48.2z"/><path class="b" d="m291.3 498.1v3.7h-56.2v-3.7z"/><path class="b" d="m279.6 509.2v19.2h-33.4v-19.2z"/><path class="b" d="m261 532.1v48.2h-14.8v-48.2z"/><path class="b" d="m280.2 532.1v48.2h-15.5v-48.2z"/><path class="b" d="m372.9 498.1v3.7h-55.6v-3.7z"/><path class="b" d="m362.4 509.2v19.2h-33.4v-19.2z"/><path class="b" d="m343.9 532.1v48.2h-14.9v-48.2z"/><path class="b" d="m362.4 532.1v48.2h-15.4v-48.2z"/><path class="b" d="m455.8 498.1v3.7h-55.7v-3.7z"/><path class="b" d="m444.1 509.2v19.2h-33.4v-19.2z"/><path class="b" d="m426.1 532.1v48.2h-15.4v-48.2z"/><path class="b" d="m444.7 532.1v48.2h-14.9v-48.2z"/><path class="b" d="m538 498.1v3.7h-56.2v-3.7z"/><path class="b" d="m526.3 509.2v19.2h-33.4v-19.2z"/><path class="b" d="m508.4 532.1v48.2h-15.5v-48.2z"/><path class="b" d="m526.9 532.1v48.2h-15.5v-48.2z"/><path class="b" d="m619.7 498.1v3.7h-55.7v-3.7z"/><path class="b" d="m609.1 509.2v19.2h-33.3v-19.2z"/><path class="b" d="m590.6 532.1v48.2h-14.8v-48.2z"/><path class="b" d="m609.8 532.1v48.2h-15.5v-48.2z"/><path class="b" d="m978.9 367.6v3.1h-55.6v-3.1z"/><path class="b" d="m968.4 378.1v19.2h-33.4v-19.2z"/><path class="b" d="m949.8 400.4v48.9h-14.8v-48.9z"/><path class="b" d="m968.4 400.4v48.9h-15.5v-48.9z"/><path class="b" d="m1061.1 367.6v3.1h-55.6v-3.1z"/><path class="b" d="m1050.6 378.1v19.2h-33.4v-19.2z"/><path class="b" d="m1032.1 400.4v48.9h-14.9v-48.9z"/><path class="b" d="m1051.2 400.4v48.9h-15.4v-48.9z"/><path class="b" d="m1144 367.6v3.1h-56.3v-3.1z"/><path class="b" d="m1132.2 378.1v19.2h-33.3v-19.2z"/><path class="b" d="m1114.3 400.4v48.9h-15.4v-48.9z"/><path class="b" d="m1132.9 400.4v48.9h-14.9v-48.9z"/><path class="b" d="m1226.2 367.6v3.1h-56.2v-3.1z"/><path class="b" d="m1215.1 378.1v19.2h-33.4v-19.2z"/><path class="b" d="m1197.2 400.4v48.9h-15.5v-48.9z"/><path class="b" d="m1215.7 400.4v48.9h-15.4v-48.9z"/><path class="b" d="m1308.5 367.6v3.1h-55.7v-3.1z"/><path class="b" d="m1297.3 378.1v19.2h-33.3v-19.2z"/><path class="b" d="m1278.8 400.4v48.9h-14.8v-48.9z"/><path class="b" d="m1298 400.4v48.9h-15.5v-48.9z"/><path class="b" d="m1390.7 367.6v3.1h-55.6v-3.1z"/><path class="b" d="m1379.6 378.1v19.2h-33.4v-19.2z"/><path class="b" d="m1361.6 400.4v48.9h-15.4v-48.9z"/><path class="b" d="m1379.6 400.4v48.9h-14.9v-48.9z"/><path class="b" d="m978.9 498.1v3.7h-55.6v-3.7z"/><path class="b" d="m968.4 509.2v19.2h-33.4v-19.2z"/><path class="b" d="m949.8 532.1v48.2h-14.8v-48.2z"/><path class="b" d="m968.4 532.1v48.2h-15.5v-48.2z"/><path class="b" d="m1061.1 498.1v3.7h-55.6v-3.7z"/><path class="b" d="m1050.6 509.2v19.2h-33.4v-19.2z"/><path class="b" d="m1032.1 532.1v48.2h-14.9v-48.2z"/><path class="b" d="m1051.2 532.1v48.2h-15.4v-48.2z"/><path class="b" d="m1144 498.1v3.7h-56.3v-3.7z"/><path class="b" d="m1132.2 509.2v19.2h-33.3v-19.2z"/><path class="b" d="m1114.3 532.1v48.2h-15.4v-48.2z"/><path class="b" d="m1132.9 532.1v48.2h-14.9v-48.2z"/><path class="b" d="m1226.2 498.1v3.7h-56.2v-3.7z"/><path class="b" d="m1215.1 509.2v19.2h-33.4v-19.2z"/><path class="b" d="m1197.2 532.1v48.2h-15.5v-48.2z"/><path class="b" d="m1215.7 532.1v48.2h-15.4v-48.2z"/><path class="b" d="m1308.5 498.1v3.7h-55.7v-3.7z"/><path class="b" d="m1297.3 509.2v19.2h-33.3v-19.2z"/><path class="b" d="m1278.8 532.1v48.2h-14.8v-48.2z"/><path class="b" d="m1298 532.1v48.2h-15.5v-48.2z"/><path class="b" d="m1390.7 498.1v3.7h-55.6v-3.7z"/><path class="b" d="m1379.6 509.2v19.2h-33.4v-19.2z"/><path class="b" d="m1361.6 532.1v48.2h-15.4v-48.2z"/><path class="b" d="m1379.6 532.1v48.2h-14.9v-48.2z"/></svg>